<svg xmlns="http://www.w3.org/2000/svg" xmlns:xlink="http://www.w3.org/1999/xlink" xmlns:lucid="lucid" width="1881" height="976"><g transform="translate(1381 622)" lucid:page-tab-id="0_0"><path d="M-1500-1000H500v2500h-2000z" fill="#fff"/><path d="M-540-392a12.8 12.8 0 0 1 4.6-9.84l41.2-34.32a16.57 16.57 0 0 1 10.6-3.84H-66a6 6 0 0 1 6 6v357.6a16.57 16.57 0 0 1-3.84 10.6l-34.32 41.2A12.8 12.8 0 0 1-108-20h-426a6 6 0 0 1-6-6z" stroke="#3a414a" stroke-width="2" fill="#fff"/><path d="M-534-398a2.17 2.17 0 0 1-1.4-3.84l41.2-34.32a16.57 16.57 0 0 1 10.6-3.84H-66a2.48 2.48 0 0 1 1.76 4.24l-33.52 33.52A14.48 14.48 0 0 1-108-398z" stroke="#3a414a" stroke-width="2" fill="#e6e6e6"/><path d="M-102-392a14.48 14.48 0 0 1 4.24-10.24l33.52-33.52A2.48 2.48 0 0 1-60-434v357.6a16.57 16.57 0 0 1-3.84 10.6l-34.32 41.2A2.17 2.17 0 0 1-102-26z" stroke="#3a414a" stroke-width="2" fill="#ccc"/><use xlink:href="#a" transform="matrix(1,0,0,1,-532,-390) translate(79.91358024691358 17.77777777777778)"/><use xlink:href="#b" transform="matrix(1,0,0,1,-532,-390) translate(194.48148148148147 17.77777777777778)"/><path d="M360-186c0 6.07-22.4 11-50 11s-50-4.93-50-11v-88c0-6.07 22.4-11 50-11s50 4.93 50 11z" stroke="#3a414a" stroke-width="2" fill="#fff"/><path d="M360-274c0 6.07-22.4 11-50 11s-50-4.93-50-11" stroke="#3a414a" stroke-width="2" fill="none"/><use xlink:href="#c" transform="matrix(1,0,0,1,265,-257.9999999999914) translate(29.598765432098766 44.59027777777778)"/><path d="M209-230h-11M164-230h-5" stroke="#3a414a" stroke-width="2" fill="none"/><path d="M184-216c-7.73 0-14-6.27-14-14s6.27-14 14-14 14 6.27 14 14-6.27 14-14 14z" stroke="#3a414a" stroke-width="2" fill="#fff"/><path d="M184-250c-11.05 0-20 8.95-20 20s8.95 20 20 20" stroke="#3a414a" stroke-width="2" fill="none"/><path d="M209-230a.8.8 0 0 1-.8.8h-9.4a.8.8 0 0 1-.8-.8.8.8 0 0 1 .8-.8h9.4a.8.8 0 0 1 .8.8z" fill="none"/><path d="M21.4-229.03H-58v-1.94h79.4zm136.6 0H78.6v-1.94H158z" stroke="#5e5e5e" stroke-width=".05" fill="#5e5e5e"/><path d="M-57.97-229.03H-59v-1.94h1.03z" fill="#5e5e5e"/><path stroke="#5e5e5e" stroke-width=".05" fill="#5e5e5e"/><path d="M159-229.03h-1.03v-1.94H159z" fill="#5e5e5e"/><path stroke="#5e5e5e" stroke-width=".05" fill="#5e5e5e"/><use xlink:href="#d" transform="matrix(1,0,0,1,21.40740740740742,-240.66666666665816) translate(0.004999999999999005 14.222222222222223)"/><path d="M258-230h-48" stroke="#5e5e5e" stroke-width="2" fill="none"/><path d="M259-229.03h-1.03v-1.94H259zM210.03-229.03H209v-1.94h1.03z" stroke="#5e5e5e" stroke-width=".05" fill="#5e5e5e"/><path d="M-370-314a6 6 0 0 1 6-6h148a6 6 0 0 1 6 6v48a6 6 0 0 1-6 6h-148a6 6 0 0 1-6-6z" stroke="#3a414a" stroke-width="2" fill="#fff"/><path d="M-390-309a6 6 0 0 1 6-6h28a6 6 0 0 1 6 6v8a6 6 0 0 1-6 6h-28a6 6 0 0 1-6-6zM-390-279a6 6 0 0 1 6-6h28a6 6 0 0 1 6 6v8a6 6 0 0 1-6 6h-28a6 6 0 0 1-6-6z" stroke="#3a414a" stroke-width="2" fill="#fff"/><use xlink:href="#e" transform="matrix(1,0,0,1,-354,-314) translate(8.802469135802468 17.77777777777778)"/><use xlink:href="#f" transform="matrix(1,0,0,1,-354,-314) translate(21.02469135802469 44.44444444444444)"/><path d="M-370-179a6 6 0 0 1 6-6h148a6 6 0 0 1 6 6v48a6 6 0 0 1-6 6h-148a6 6 0 0 1-6-6z" stroke="#3a414a" stroke-width="2" fill="#fff"/><path d="M-390-174a6 6 0 0 1 6-6h28a6 6 0 0 1 6 6v8a6 6 0 0 1-6 6h-28a6 6 0 0 1-6-6zM-390-144a6 6 0 0 1 6-6h28a6 6 0 0 1 6 6v8a6 6 0 0 1-6 6h-28a6 6 0 0 1-6-6z" stroke="#3a414a" stroke-width="2" fill="#fff"/><use xlink:href="#e" transform="matrix(1,0,0,1,-354,-178.99999999999145) translate(8.802469135802468 17.77777777777778)"/><use xlink:href="#g" transform="matrix(1,0,0,1,-354,-178.99999999999145) translate(22.29012345679012 44.44444444444444)"/><path d="M-300-258v71" stroke="#5e5e5e" stroke-width="2" fill="none"/><path d="M-299.02-257.97h-1.96V-259h1.96zM-299.02-186h-1.96v-1.03h1.96z" stroke="#5e5e5e" stroke-width=".05" fill="#5e5e5e"/><path d="M-1300-403.1a12.8 12.8 0 0 1 4.6-9.86l7.34-6.1a16.57 16.57 0 0 1 10.6-3.85H-1026a6 6 0 0 1 6 6v109.35a16.57 16.57 0 0 1-3.84 10.6l-6.1 7.34a12.8 12.8 0 0 1-9.85 4.6H-1294a6 6 0 0 1-6-6z" stroke="#3a414a" stroke-width="2" fill="#fff"/><path d="M-1294-409.1a2.17 2.17 0 0 1-1.4-3.86l7.34-6.1a16.57 16.57 0 0 1 10.6-3.85H-1026a2.48 2.48 0 0 1 1.76 4.24l-5.3 5.3a14.48 14.48 0 0 1-10.25 4.25z" stroke="#3a414a" stroke-width="2" fill="#e6e6e6"/><path d="M-1033.8-403.1a14.48 14.48 0 0 1 4.25-10.26l5.3-5.3a2.48 2.48 0 0 1 4.25 1.75v109.35a16.57 16.57 0 0 1-3.84 10.6l-6.1 7.34a2.17 2.17 0 0 1-3.85-1.4z" stroke="#3a414a" stroke-width="2" fill="#ccc"/><use xlink:href="#h" transform="matrix(1,0,0,1,-1292,-401.11517130739287) translate(0 16.6)"/><use xlink:href="#i" transform="matrix(1,0,0,1,-1292,-401.11517130739287) translate(71.85000000000001 16.6)"/><path d="M-822.06-353.95h11M-777.06-353.95h5" stroke="#3a414a" stroke-width="2" fill="none"/><path d="M-797.06-367.95c7.73 0 14 6.27 14 14s-6.27 14-14 14-14-6.27-14-14 6.27-14 14-14z" stroke="#3a414a" stroke-width="2" fill="#fff"/><path d="M-797.06-333.95c11.05 0 20-8.96 20-20 0-11.05-8.95-20-20-20" stroke="#3a414a" stroke-width="2" fill="none"/><path d="M-822.06-353.95a.8.8 0 0 1 .8-.8h9.4a.8.8 0 0 1 .8.8.8.8 0 0 1-.8.8h-9.4a.8.8 0 0 1-.8-.8z" fill="none"/><path d="M-822.06-180h11M-777.06-180h5" stroke="#3a414a" stroke-width="2" fill="none"/><path d="M-797.06-194c7.73 0 14 6.27 14 14s-6.27 14-14 14-14-6.27-14-14 6.27-14 14-14z" stroke="#3a414a" stroke-width="2" fill="#fff"/><path d="M-797.06-160c11.05 0 20-8.95 20-20s-8.95-20-20-20" stroke="#3a414a" stroke-width="2" fill="none"/><path d="M-822.06-180a.8.8 0 0 1 .8-.8h9.4a.8.8 0 0 1 .8.8.8.8 0 0 1-.8.8h-9.4a.8.8 0 0 1-.8-.8z" fill="none"/><path d="M-822.06 0h11M-777.06 0h5" stroke="#3a414a" stroke-width="2" fill="none"/><path d="M-797.06-14c7.73 0 14 6.27 14 14s-6.27 14-14 14-14-6.27-14-14 6.27-14 14-14z" stroke="#3a414a" stroke-width="2" fill="#fff"/><path d="M-797.06 20c11.05 0 20-8.95 20-20s-8.95-20-20-20" stroke="#3a414a" stroke-width="2" fill="none"/><path d="M-822.06 0a.8.8 0 0 1 .8-.8h9.4a.8.8 0 0 1 .8.8.8.8 0 0 1-.8.8h-9.4a.8.8 0 0 1-.8-.8z" fill="none"/><path d="M-822.06 186.86h11M-777.06 186.86h5" stroke="#3a414a" stroke-width="2" fill="none"/><path d="M-797.06 172.86c7.73 0 14 6.27 14 14s-6.27 14-14 14-14-6.27-14-14 6.27-14 14-14z" stroke="#3a414a" stroke-width="2" fill="#fff"/><path d="M-797.06 206.86c11.05 0 20-8.95 20-20 0-11.04-8.95-20-20-20" stroke="#3a414a" stroke-width="2" fill="none"/><path d="M-822.06 186.86a.8.8 0 0 1 .8-.8h9.4a.8.8 0 0 1 .8.8.8.8 0 0 1-.8.8h-9.4a.8.8 0 0 1-.8-.8z" fill="none"/><path d="M-681.64-352.98h-89.42v-1.95h89.42zm139.64 0h-89.42v-1.95H-542z" stroke="#5e5e5e" stroke-width=".05" fill="#5e5e5e"/><path d="M-541-352.98h-1.03v-1.95h1.03z" fill="#5e5e5e"/><path stroke="#5e5e5e" stroke-width=".05" fill="#5e5e5e"/><path d="M-771.03-352.98h-1.03v-1.95h1.03z" fill="#5e5e5e"/><path stroke="#5e5e5e" stroke-width=".05" fill="#5e5e5e"/><use xlink:href="#j" transform="matrix(1,0,0,1,-681.6407641187693,-364.61968512667255) translate(0.004999999999999005 14.222222222222223)"/><path d="M-823.06-353.95H-1018" stroke="#5e5e5e" stroke-width="2" fill="none"/><path d="M-822.06-352.97h-1.03v-1.95h1.04zM-1017.97-352.98h-1.03v-1.95h1.03zM-685.6-179.03h-85.46v-1.94h85.47zm143.6 0h-85.47v-1.94H-542z" stroke="#5e5e5e" stroke-width=".05" fill="#5e5e5e"/><path d="M-541-179.03h-1.03v-1.94h1.03z" fill="#5e5e5e"/><path stroke="#5e5e5e" stroke-width=".05" fill="#5e5e5e"/><path d="M-771.03-179.03h-1.03v-1.94h1.03z" fill="#5e5e5e"/><path stroke="#5e5e5e" stroke-width=".05" fill="#5e5e5e"/><use xlink:href="#k" transform="matrix(1,0,0,1,-685.5913601680899,-190.66666666666677) translate(0.004999999999999005 14.222222222222223)"/><path d="M-998-180h174.94" stroke="#5e5e5e" stroke-width="2" fill="none"/><path d="M-997.97-179.03H-999v-1.94h1.03zM-822.06-179.03h-1.03v-1.94h1.04zM-655.55-5.96l-.1 1.05-.24 1.06-.4 1-.58.94-.72.83-.83.72-.93.57-1 .42-1.08.25-1.05.07h-108.56V-.96h108.5l.82-.07.76-.18.73-.3.67-.42.6-.5.5-.6.43-.68.3-.73.18-.76.07-.84v-46.84h1.95zM-542-126.12h-108.5l-.82.07-.76.18-.73.3-.68.42-.6.5-.5.6-.42.68-.3.73-.2.76-.05.83v46.84h-1.96v-46.93l.08-1.05.25-1.07.42-1 .58-.94.7-.83.84-.7.93-.58 1-.43 1.08-.25 1.05-.1H-542z" stroke="#5e5e5e" stroke-width=".05" fill="#5e5e5e"/><path d="M-541-126.12h-1.03v-1.95h1.03z" fill="#5e5e5e"/><path stroke="#5e5e5e" stroke-width=".05" fill="#5e5e5e"/><path d="M-771.03.97h-1.03V-.96h1.03z" fill="#5e5e5e"/><path stroke="#5e5e5e" stroke-width=".05" fill="#5e5e5e"/><use xlink:href="#l" transform="matrix(1,0,0,1,-681.1715998537047,-74.21231330727126) translate(0.004999999999999005 14.222222222222223)"/><path d="M-823.06 0H-1018" stroke="#5e5e5e" stroke-width="2" fill="none"/><path d="M-822.06.97h-1.03V-.96h1.04zM-1017.97.97h-1.03V-.96h1.03z" stroke="#5e5e5e" stroke-width=".05" fill="#5e5e5e"/><path d="M-1018 186.86h194.94" stroke="#5e5e5e" stroke-width="2" fill="none"/><path d="M-1017.97 187.84h-1.03v-1.95h1.03zM-822.06 187.84h-1.03v-1.95h1.04zM-569.37 187.84h-201.7v-1.95h201.7zm55.92-11.64h-1.95V-18h1.95z" stroke="#5e5e5e" stroke-width=".05" fill="#5e5e5e"/><path d="M-513.45-17.97h-1.95V-19h1.95z" fill="#5e5e5e"/><path stroke="#5e5e5e" stroke-width=".05" fill="#5e5e5e"/><path d="M-771.03 187.84h-1.03v-1.95h1.03z" fill="#5e5e5e"/><path stroke="#5e5e5e" stroke-width=".05" fill="#5e5e5e"/><use xlink:href="#k" transform="matrix(1,0,0,1,-569.3729191231724,176.19639341151978) translate(0.004999999999999005 14.222222222222223)"/><path d="M-269.36 174a12.8 12.8 0 0 1 4.6-9.84l12.4-10.32a16.57 16.57 0 0 1 10.6-3.84h286.4a6 6 0 0 1 6 6v146.4A16.57 16.57 0 0 1 46.8 313l-10.32 12.4a12.8 12.8 0 0 1-9.84 4.6h-290a6 6 0 0 1-6-6z" stroke="#3a414a" stroke-width="2" fill="#fff"/><path d="M-263.36 168a2.17 2.17 0 0 1-1.4-3.84l12.4-10.32a16.57 16.57 0 0 1 10.6-3.84h286.4a2.48 2.48 0 0 1 1.76 4.24l-9.52 9.52A14.48 14.48 0 0 1 26.64 168z" stroke="#3a414a" stroke-width="2" fill="#e6e6e6"/><path d="M32.64 174a14.48 14.48 0 0 1 4.24-10.24l9.52-9.52a2.48 2.48 0 0 1 4.24 1.76v146.4A16.57 16.57 0 0 1 46.8 313l-10.32 12.4a2.17 2.17 0 0 1-3.84-1.4z" stroke="#3a414a" stroke-width="2" fill="#ccc"/><use xlink:href="#m" transform="matrix(1,0,0,1,-261.36224810896147,176) translate(18.975308641975317 17.77777777777778)"/><use xlink:href="#n" transform="matrix(1,0,0,1,-261.36224810896147,176) translate(132.30864197530866 17.77777777777778)"/><path d="M-184.36 226a6 6 0 0 1 6-6h158a6 6 0 0 1 6 6v48a6 6 0 0 1-6 6h-158a6 6 0 0 1-6-6z" stroke="#3a414a" stroke-width="2" fill="#fff"/><path d="M-204.36 231a6 6 0 0 1 6-6h28a6 6 0 0 1 6 6v8a6 6 0 0 1-6 6h-28a6 6 0 0 1-6-6zM-204.36 261a6 6 0 0 1 6-6h28a6 6 0 0 1 6 6v8a6 6 0 0 1-6 6h-28a6 6 0 0 1-6-6z" stroke="#3a414a" stroke-width="2" fill="#fff"/><use xlink:href="#o" transform="matrix(1,0,0,1,-166.36224810896147,226) translate(12.240740740740733 17.77777777777778)"/><use xlink:href="#p" transform="matrix(1,0,0,1,-166.36224810896147,226) translate(46.160493827160494 44.44444444444444)"/><path d="M-108.4 148h-1.94V75.67h1.95zm0-93.67h-1.94V-18h1.95z" stroke="#5e5e5e" stroke-width=".05" fill="#5e5e5e"/><path d="M-108.4-17.97h-1.94V-19h1.95z" fill="#5e5e5e"/><path stroke="#5e5e5e" stroke-width=".05" fill="#5e5e5e"/><path d="M-108.4 149h-1.94v-1.03h1.95z" fill="#5e5e5e"/><path stroke="#5e5e5e" stroke-width=".05" fill="#5e5e5e"/><use xlink:href="#q" transform="matrix(1,0,0,1,-138.94249502224045,54.33332157455233) translate(0.004999999999999005 14.222222222222223)"/><g fill="none"><path d="M421-477.18V38.5"/><path d="M421-477.18v6.14m0 12.27v12.28m0 12.3v12.27m0 12.28v12.28m0 12.27v12.28m0 12.28v12.28m0 12.28v12.27m0 12.27v12.28m0 12.28v12.28m0 12.28v12.28m0 12.28v12.28m0 12.28v12.28m0 12.27v12.28m0 12.28v12.3m0 12.27v12.27m0 12.28v12.28m0 12.28v12.28m0 12.28v12.27m0 12.3v12.27m0 12.28v12.28m0 12.27v12.28m0 12.28v6.14" stroke="#3a414a" stroke-width="3" stroke-linecap="round"/></g><path d="M-558.5-479.18h977" fill="none"/><path d="M-558.5-479.18h5.96m11.9 0h11.93m11.9 0h11.92m11.9 0h11.93m11.9 0h11.92m11.92 0h11.9m11.92 0h11.9m11.93 0h11.9m11.93 0h11.9m11.93 0h11.92m11.9 0h11.93m11.92 0h11.9m11.92 0h11.9m11.92 0h11.92m11.9 0h11.93m11.9 0h11.93m11.9 0h11.93m11.9 0h11.93m11.9 0h11.92m11.92 0h11.9m11.93 0h11.9m11.93 0h11.9m11.93 0h11.9m11.92 0h11.9m11.93 0h11.9m11.92 0H43.2m11.9 0h11.92m11.9 0h11.93m11.9 0h11.93m11.9 0h11.93m11.92 0h11.92m11.9 0h11.92m11.92 0h11.9m11.93 0h11.92m11.92 0h11.9m11.93 0h11.9m11.93 0h11.9m11.93 0h11.9m11.93 0h11.9m11.92 0h11.92m11.9 0h11.93m11.9 0h5.97" stroke="#3a414a" stroke-width="3" stroke-linecap="round" fill="none"/><g fill="none"><path d="M-561.5-476.18v517"/><path d="M-561.5-476.18v5.87m0 11.74v11.75m0 11.74v11.75m0 11.74v11.75m0 11.74v11.75m0 11.74v11.75m0 11.74v11.75m0 11.74v11.75m0 11.74v11.75m0 11.74v11.75m0 11.74v11.75m0 11.74v11.75m0 11.74v11.75m0 11.74v11.75m0 11.74v11.75m0 11.74v11.75m0 11.74v11.75m0 11.74v11.75m0 11.74v11.75m0 11.74v11.75m0 11.74V-.3m0 11.74V23.2m0 11.74v5.88" stroke="#3a414a" stroke-width="3" stroke-linecap="round"/></g><path d="M-561.5 43.82h980" fill="none"/><path d="M-561.5 43.82h5.98m11.95 0h11.95m11.95 0h11.95m11.95 0h11.95m11.95 0h11.95m11.96 0H-436m11.94 0h11.95m11.94 0h11.95m11.94 0h11.95m11.95 0h11.95m11.95 0h11.95m11.95 0h11.95m11.95 0h11.95m11.96 0h11.95m11.96 0h11.95m11.96 0H-197m11.96 0h11.95m11.97 0h11.95m11.95 0h11.95m11.95 0h11.95m11.95 0h11.95m11.96 0h11.95m11.95 0h11.95m11.95 0h11.95m11.95 0h11.95m11.96 0h11.94m11.95 0h11.94m11.95 0h11.94m11.95 0h11.94m11.95 0h11.95m11.95 0h11.95m11.95 0h11.95m11.95 0h11.95m11.96 0h11.96m11.95 0h11.96m11.95 0h11.96m11.95 0h11.96m11.96 0h11.95m11.95 0h11.95m11.95 0h11.95m11.95 0h11.95m11.95 0h5.98" stroke="#3a414a" stroke-width="3" stroke-linecap="round" fill="none"/><path d="M-1215-356.9a6 6 0 0 1 6-6h143a6 6 0 0 1 6 6v50.9a6 6 0 0 1-6 6h-143a6 6 0 0 1-6-6z" stroke="#3a414a" stroke-width="2" fill="#fff"/><path d="M-1235-351.18a6 6 0 0 1 6-6h28a6 6 0 0 1 6 6v8a6 6 0 0 1-6 6h-28a6 6 0 0 1-6-6zM-1235-319.73a6 6 0 0 1 6-6h28a6 6 0 0 1 6 6v8a6 6 0 0 1-6 6h-28a6 6 0 0 1-6-6z" stroke="#3a414a" stroke-width="2" fill="#fff"/><use xlink:href="#r" transform="matrix(1,0,0,1,-1200,-356.6178360469024) translate(28.845679012345684 29.944444444444443)"/><path d="M-1320-238a12.8 12.8 0 0 1 4.6-9.84l10-8.32a16.57 16.57 0 0 1 10.6-3.84h288.8a6 6 0 0 1 6 6v128.8a16.57 16.57 0 0 1-3.84 10.6l-8.32 10a12.8 12.8 0 0 1-9.84 4.6h-292a6 6 0 0 1-6-6z" stroke="#3a414a" stroke-width="2" fill="#fff"/><path d="M-1314-244a2.17 2.17 0 0 1-1.4-3.84l10-8.32a16.57 16.57 0 0 1 10.6-3.84h288.8a2.48 2.48 0 0 1 1.76 4.24l-7.52 7.52A14.48 14.48 0 0 1-1022-244z" stroke="#3a414a" stroke-width="2" fill="#e6e6e6"/><path d="M-1016-238a14.48 14.48 0 0 1 4.24-10.24l7.52-7.52A2.48 2.48 0 0 1-1000-254v128.8a16.57 16.57 0 0 1-3.84 10.6l-8.32 10a2.17 2.17 0 0 1-3.84-1.4z" stroke="#3a414a" stroke-width="2" fill="#ccc"/><use xlink:href="#h" transform="matrix(1,0,0,1,-1312,-236) translate(0 14.4)"/><use xlink:href="#s" transform="matrix(1,0,0,1,-1312,-236) translate(71.85000000000001 14.4)"/><use xlink:href="#t" transform="matrix(1,0,0,1,-1312,-236) translate(0 36)"/><use xlink:href="#u" transform="matrix(1,0,0,1,-1312,-236) translate(59 36)"/><use xlink:href="#v" transform="matrix(1,0,0,1,-1312,-236) translate(84 36)"/><path d="M-1234.4-181.75a6 6 0 0 1 6-6h156.8a6 6 0 0 1 6 6v63.66a6 6 0 0 1-6 6h-156.8a6 6 0 0 1-6-6z" stroke="#3a414a" stroke-width="2" fill="#fff"/><path d="M-1254.4-172.84a6 6 0 0 1 6-6h28a6 6 0 0 1 6 6v8a6 6 0 0 1-6 6h-28a6 6 0 0 1-6-6zM-1254.4-135a6 6 0 0 1 6-6h28a6 6 0 0 1 6 6v8a6 6 0 0 1-6 6h-28a6 6 0 0 1-6-6z" stroke="#3a414a" stroke-width="2" fill="#fff"/><use xlink:href="#w" transform="matrix(1,0,0,1,-1216.644944407282,-180.18412932810935) translate(2.3765432098765302 14.222222222222223)"/><use xlink:href="#x" transform="matrix(1,0,0,1,-1216.644944407282,-180.18412932810935) translate(27.487654320987644 35.55555555555556)"/><use xlink:href="#y" transform="matrix(1,0,0,1,-1216.644944407282,-180.18412932810935) translate(85.75925925925927 35.55555555555556)"/><use xlink:href="#z" transform="matrix(1,0,0,1,-1216.644944407282,-180.18412932810935) translate(24.57407407407407 56.88888888888889)"/><path d="M-1300-40.2a12.8 12.8 0 0 1 4.6-9.85l7.34-6.1a16.57 16.57 0 0 1 10.6-3.85H-1026a6 6 0 0 1 6 6V55.36a16.57 16.57 0 0 1-3.84 10.6l-6.1 7.34a12.8 12.8 0 0 1-9.85 4.6H-1294a6 6 0 0 1-6-6z" stroke="#3a414a" stroke-width="2" fill="#fff"/><path d="M-1294-46.2a2.17 2.17 0 0 1-1.4-3.85l7.34-6.1a16.57 16.57 0 0 1 10.6-3.85H-1026a2.48 2.48 0 0 1 1.76 4.24l-5.3 5.3a14.48 14.48 0 0 1-10.25 4.25z" stroke="#3a414a" stroke-width="2" fill="#e6e6e6"/><path d="M-1033.8-40.2a14.48 14.48 0 0 1 4.25-10.25l5.3-5.3A2.48 2.48 0 0 1-1020-54V55.36a16.57 16.57 0 0 1-3.84 10.6l-6.1 7.34a2.17 2.17 0 0 1-3.85-1.4z" stroke="#3a414a" stroke-width="2" fill="#ccc"/><g><use xlink:href="#h" transform="matrix(1,0,0,1,-1292,-38.2091293281209) translate(0 16.6)"/><use xlink:href="#A" transform="matrix(1,0,0,1,-1292,-38.2091293281209) translate(71.85000000000001 16.6)"/><use xlink:href="#B" transform="matrix(1,0,0,1,-1292,-38.2091293281209) translate(135.85000000000002 16.6)"/></g><path d="M-1241.35-1.1a6 6 0 0 1 6-6h170.7a6 6 0 0 1 6 6v60.55a6 6 0 0 1-6 6h-170.7a6 6 0 0 1-6-6z" stroke="#3a414a" stroke-width="2" fill="#fff"/><path d="M-1261.35 7.04a6 6 0 0 1 6-6h28a6 6 0 0 1 6 6v8a6 6 0 0 1-6 6h-28a6 6 0 0 1-6-6zM-1261.35 43.32a6 6 0 0 1 6-6h28a6 6 0 0 1 6 6v8a6 6 0 0 1-6 6h-28a6 6 0 0 1-6-6z" stroke="#3a414a" stroke-width="2" fill="#fff"/><g><use xlink:href="#C" transform="matrix(1,0,0,1,-1220.8069501131345,0.16314783614583916) translate(2.574074074074076 33.94444444444444)"/><use xlink:href="#D" transform="matrix(1,0,0,1,-1220.8069501131345,0.16314783614583916) translate(84.05555555555554 33.94444444444444)"/></g><path d="M-1300 137.7a12.8 12.8 0 0 1 4.6-9.84l7.34-6.1a16.57 16.57 0 0 1 10.6-3.85H-1026a6 6 0 0 1 6 6v109.37a16.57 16.57 0 0 1-3.84 10.6l-6.1 7.34a12.8 12.8 0 0 1-9.85 4.62H-1294a6 6 0 0 1-6-6z" stroke="#3a414a" stroke-width="2" fill="#fff"/><path d="M-1294 131.7a2.17 2.17 0 0 1-1.4-3.84l7.34-6.1a16.57 16.57 0 0 1 10.6-3.85H-1026a2.48 2.48 0 0 1 1.76 4.25l-5.3 5.3a14.48 14.48 0 0 1-10.25 4.25z" stroke="#3a414a" stroke-width="2" fill="#e6e6e6"/><path d="M-1033.8 137.7a14.48 14.48 0 0 1 4.25-10.24l5.3-5.3a2.48 2.48 0 0 1 4.25 1.75v109.37a16.57 16.57 0 0 1-3.84 10.6l-6.1 7.34a2.17 2.17 0 0 1-3.85-1.38z" stroke="#3a414a" stroke-width="2" fill="#ccc"/><g><use xlink:href="#h" transform="matrix(1,0,0,1,-1292,139.69957739067007) translate(0 16.6)"/><use xlink:href="#E" transform="matrix(1,0,0,1,-1292,139.69957739067007) translate(71.85000000000001 16.6)"/></g><path d="M-1226.68 186.62a6 6 0 0 1 6-6h141.36a6 6 0 0 1 6 6v53.78a6 6 0 0 1-6 6h-141.36a6 6 0 0 1-6-6z" stroke="#3a414a" stroke-width="2" fill="#fff"/><path d="M-1246.68 193.06a6 6 0 0 1 6-6h28a6 6 0 0 1 6 6v8a6 6 0 0 1-6 6h-28a6 6 0 0 1-6-6zM-1246.68 225.96a6 6 0 0 1 6-6h28a6 6 0 0 1 6 6v8a6 6 0 0 1-6 6h-28a6 6 0 0 1-6-6z" stroke="#3a414a" stroke-width="2" fill="#fff"/><g><use xlink:href="#F" transform="matrix(1,0,0,1,-1212.007418829146,187.19827752016394) translate(33.376543209876544 30.944444444444443)"/></g><path d="M-740-612.37a6 6 0 0 1 6-6h648a6 6 0 0 1 6 6v88a6 6 0 0 1-6 6h-648a6 6 0 0 1-6-6z" fill="none"/><g><use xlink:href="#G" transform="matrix(1,0,0,1,-740,-618.3651731248533) translate(165.1543209876543 56.22222222222222)"/><use xlink:href="#H" transform="matrix(1,0,0,1,-740,-618.3651731248533) translate(372.3888888888889 56.22222222222222)"/></g><defs><path d="M197 0v-115H63V0H30v-248h33v105h134v-105h34V0h-34" id="I"/><path d="M100-194c63 0 86 42 84 106H49c0 40 14 67 53 68 26 1 43-12 49-29l28 8c-11 28-37 45-77 45C44 4 14-33 15-96c1-61 26-98 85-98zm52 81c6-60-76-77-97-28-3 7-6 17-6 28h103" id="J"/><path d="M24 0v-261h32V0H24" id="K"/><path d="M141-36C126-15 110 5 73 4 37 3 15-17 15-53c-1-64 63-63 125-63 3-35-9-54-41-54-24 1-41 7-42 31l-33-3c5-37 33-52 76-52 45 0 72 20 72 64v82c-1 20 7 32 28 27v20c-31 9-61-2-59-35zM48-53c0 20 12 33 32 33 41-3 63-29 60-74-43 2-92-5-92 41" id="L"/><path d="M85-194c31 0 48 13 60 33l-1-100h32l1 261h-30c-2-10 0-23-3-31C134-8 116 4 85 4 32 4 16-35 15-94c0-66 23-100 70-100zm9 24c-40 0-46 34-46 75 0 40 6 74 45 74 42 0 51-32 51-76 0-42-9-74-50-73" id="M"/><path d="M114-163C36-179 61-72 57 0H25l-1-190h30c1 12-1 29 2 39 6-27 23-49 58-41v29" id="N"/><path d="M205 0l-28-72H64L36 0H1l101-248h38L239 0h-34zm-38-99l-47-123c-12 45-31 82-46 123h93" id="O"/><path d="M233-177c-1 41-23 64-60 70L243 0h-38l-65-103H63V0H30v-248c88 3 205-21 203 71zM63-129c60-2 137 13 137-47 0-61-80-42-137-45v92" id="P"/><g id="a"><use transform="matrix(0.06172839506172839,0,0,0.06172839506172839,0,0)" xlink:href="#I"/><use transform="matrix(0.06172839506172839,0,0,0.06172839506172839,15.987654320987653,0)" xlink:href="#J"/><use transform="matrix(0.06172839506172839,0,0,0.06172839506172839,28.333333333333332,0)" xlink:href="#K"/><use transform="matrix(0.06172839506172839,0,0,0.06172839506172839,33.20987654320987,0)" xlink:href="#L"/><use transform="matrix(0.06172839506172839,0,0,0.06172839506172839,45.55555555555555,0)" xlink:href="#M"/><use transform="matrix(0.06172839506172839,0,0,0.06172839506172839,57.90123456790123,0)" xlink:href="#J"/><use transform="matrix(0.06172839506172839,0,0,0.06172839506172839,70.24691358024691,0)" xlink:href="#N"/><use transform="matrix(0.06172839506172839,0,0,0.06172839506172839,77.5925925925926,0)" xlink:href="#O"/><use transform="matrix(0.06172839506172839,0,0,0.06172839506172839,92.4074074074074,0)" xlink:href="#P"/></g><path d="M135-143c-3-34-86-38-87 0 15 53 115 12 119 90S17 21 10-45l28-5c4 36 97 45 98 0-10-56-113-15-118-90-4-57 82-63 122-42 12 7 21 19 24 35" id="Q"/><path d="M108 0H70L1-190h34L89-25l56-165h34" id="R"/><g id="b"><use transform="matrix(0.06172839506172839,0,0,0.06172839506172839,0,0)" xlink:href="#Q"/><use transform="matrix(0.06172839506172839,0,0,0.06172839506172839,11.11111111111111,0)" xlink:href="#J"/><use transform="matrix(0.06172839506172839,0,0,0.06172839506172839,23.45679012345679,0)" xlink:href="#N"/><use transform="matrix(0.06172839506172839,0,0,0.06172839506172839,30.80246913580247,0)" xlink:href="#R"/><use transform="matrix(0.06172839506172839,0,0,0.06172839506172839,41.91358024691358,0)" xlink:href="#J"/><use transform="matrix(0.06172839506172839,0,0,0.06172839506172839,54.25925925925926,0)" xlink:href="#N"/></g><path d="M160-131c35 5 61 23 61 61C221 17 115-2 30 0v-248c76 3 177-17 177 60 0 33-19 50-47 57zm-97-11c50-1 110 9 110-42 0-47-63-36-110-37v79zm0 115c55-2 124 14 124-45 0-56-70-42-124-44v89" id="S"/><path d="M30-248c118-7 216 8 213 122C240-48 200 0 122 0H30v-248zM63-27c89 8 146-16 146-99s-60-101-146-95v194" id="T"/><g id="c"><use transform="matrix(0.06172839506172839,0,0,0.06172839506172839,0,0)" xlink:href="#S"/><use transform="matrix(0.06172839506172839,0,0,0.06172839506172839,14.814814814814813,0)" xlink:href="#T"/></g><path fill="#333" d="M136-208V0H84v-208H4v-40h212v40h-80" id="U"/><path fill="#333" d="M67-125c0 53 21 87 73 88 37 1 54-22 65-47l45 17C233-25 199 4 140 4 58 4 20-42 15-125 8-235 124-281 211-232c18 10 29 29 36 50l-46 12c-8-25-30-41-62-41-52 0-71 34-72 86" id="V"/><path fill="#333" d="M24-248c93 1 206-16 204 79-1 75-69 88-152 82V0H24v-248zm52 121c47 0 100 7 100-41 0-47-54-39-100-39v80" id="W"/><path fill="#333" d="M4 7l51-268h42L46 7H4" id="X"/><path fill="#333" d="M24 0v-248h52V0H24" id="Y"/><g id="d"><use transform="matrix(0.04938271604938272,0,0,0.04938271604938272,0,0)" xlink:href="#U"/><use transform="matrix(0.04938271604938272,0,0,0.04938271604938272,10.814814814814815,0)" xlink:href="#V"/><use transform="matrix(0.04938271604938272,0,0,0.04938271604938272,23.60493827160494,0)" xlink:href="#W"/><use transform="matrix(0.04938271604938272,0,0,0.04938271604938272,35.45679012345679,0)" xlink:href="#X"/><use transform="matrix(0.04938271604938272,0,0,0.04938271604938272,40.39506172839506,0)" xlink:href="#Y"/><use transform="matrix(0.04938271604938272,0,0,0.04938271604938272,45.333333333333336,0)" xlink:href="#W"/></g><g id="e"><use transform="matrix(0.06172839506172839,0,0,0.06172839506172839,0,0)" xlink:href="#I"/><use transform="matrix(0.06172839506172839,0,0,0.06172839506172839,15.987654320987653,0)" xlink:href="#J"/><use transform="matrix(0.06172839506172839,0,0,0.06172839506172839,28.333333333333332,0)" xlink:href="#K"/><use transform="matrix(0.06172839506172839,0,0,0.06172839506172839,33.20987654320987,0)" xlink:href="#L"/><use transform="matrix(0.06172839506172839,0,0,0.06172839506172839,45.55555555555555,0)" xlink:href="#M"/><use transform="matrix(0.06172839506172839,0,0,0.06172839506172839,57.90123456790123,0)" xlink:href="#J"/><use transform="matrix(0.06172839506172839,0,0,0.06172839506172839,70.24691358024691,0)" xlink:href="#N"/><use transform="matrix(0.06172839506172839,0,0,0.06172839506172839,77.5925925925926,0)" xlink:href="#O"/><use transform="matrix(0.06172839506172839,0,0,0.06172839506172839,92.4074074074074,0)" xlink:href="#P"/></g><path d="M115-194c53 0 69 39 70 98 0 66-23 100-70 100C84 3 66-7 56-30L54 0H23l1-261h32v101c10-23 28-34 59-34zm-8 174c40 0 45-34 45-75 0-40-5-75-45-74-42 0-51 32-51 76 0 43 10 73 51 73" id="Z"/><path d="M96-169c-40 0-48 33-48 73s9 75 48 75c24 0 41-14 43-38l32 2c-6 37-31 61-74 61-59 0-76-41-82-99-10-93 101-131 147-64 4 7 5 14 7 22l-32 3c-4-21-16-35-41-35" id="aa"/><path d="M143 0L79-87 56-68V0H24v-261h32v163l83-92h37l-77 82L181 0h-38" id="ab"/><path d="M117-194c89-4 53 116 60 194h-32v-121c0-31-8-49-39-48C34-167 62-67 57 0H25l-1-190h30c1 10-1 24 2 32 11-22 29-35 61-36" id="ac"/><g id="f"><use transform="matrix(0.06172839506172839,0,0,0.06172839506172839,0,0)" xlink:href="#Z"/><use transform="matrix(0.06172839506172839,0,0,0.06172839506172839,12.345679012345679,0)" xlink:href="#L"/><use transform="matrix(0.06172839506172839,0,0,0.06172839506172839,24.691358024691358,0)" xlink:href="#aa"/><use transform="matrix(0.06172839506172839,0,0,0.06172839506172839,35.80246913580247,0)" xlink:href="#ab"/><use transform="matrix(0.06172839506172839,0,0,0.06172839506172839,46.91358024691358,0)" xlink:href="#J"/><use transform="matrix(0.06172839506172839,0,0,0.06172839506172839,59.25925925925926,0)" xlink:href="#ac"/><use transform="matrix(0.06172839506172839,0,0,0.06172839506172839,71.60493827160494,0)" xlink:href="#M"/></g><path d="M101-234c-31-9-42 10-38 44h38v23H63V0H32v-167H5v-23h27c-7-52 17-82 69-68v24" id="ad"/><path d="M100-194c62-1 85 37 85 99 1 63-27 99-86 99S16-35 15-95c0-66 28-99 85-99zM99-20c44 1 53-31 53-75 0-43-8-75-51-75s-53 32-53 75 10 74 51 75" id="ae"/><path d="M59-47c-2 24 18 29 38 22v24C64 9 27 4 27-40v-127H5v-23h24l9-43h21v43h35v23H59v120" id="af"/><g id="g"><use transform="matrix(0.06172839506172839,0,0,0.06172839506172839,0,0)" xlink:href="#ad"/><use transform="matrix(0.06172839506172839,0,0,0.06172839506172839,6.172839506172839,0)" xlink:href="#N"/><use transform="matrix(0.06172839506172839,0,0,0.06172839506172839,13.518518518518519,0)" xlink:href="#ae"/><use transform="matrix(0.06172839506172839,0,0,0.06172839506172839,25.864197530864196,0)" xlink:href="#ac"/><use transform="matrix(0.06172839506172839,0,0,0.06172839506172839,38.20987654320987,0)" xlink:href="#af"/><use transform="matrix(0.06172839506172839,0,0,0.06172839506172839,44.382716049382715,0)" xlink:href="#J"/><use transform="matrix(0.06172839506172839,0,0,0.06172839506172839,56.72839506172839,0)" xlink:href="#ac"/><use transform="matrix(0.06172839506172839,0,0,0.06172839506172839,69.07407407407408,0)" xlink:href="#M"/></g><path d="M185-189c-5-48-123-54-124 2 14 75 158 14 163 119 3 78-121 87-175 55-17-10-28-26-33-46l33-7c5 56 141 63 141-1 0-78-155-14-162-118-5-82 145-84 179-34 5 7 8 16 11 25" id="ag"/><path d="M24-231v-30h32v30H24zM24 0v-190h32V0H24" id="ah"/><g id="h"><use transform="matrix(0.05,0,0,0.05,0,0)" xlink:href="#ag"/><use transform="matrix(0.05,0,0,0.05,12,0)" xlink:href="#J"/><use transform="matrix(0.05,0,0,0.05,22,0)" xlink:href="#N"/><use transform="matrix(0.05,0,0,0.05,27.950000000000003,0)" xlink:href="#R"/><use transform="matrix(0.05,0,0,0.05,36.95,0)" xlink:href="#ah"/><use transform="matrix(0.05,0,0,0.05,40.900000000000006,0)" xlink:href="#M"/><use transform="matrix(0.05,0,0,0.05,50.900000000000006,0)" xlink:href="#ae"/><use transform="matrix(0.05,0,0,0.05,60.900000000000006,0)" xlink:href="#N"/></g><g id="i"><use transform="matrix(0.05,0,0,0.05,0,0)" xlink:href="#Z"/><use transform="matrix(0.05,0,0,0.05,10,0)" xlink:href="#N"/><use transform="matrix(0.05,0,0,0.05,15.949999999999998,0)" xlink:href="#ae"/><use transform="matrix(0.05,0,0,0.05,25.950000000000003,0)" xlink:href="#ab"/><use transform="matrix(0.05,0,0,0.05,34.95,0)" xlink:href="#J"/><use transform="matrix(0.05,0,0,0.05,44.95,0)" xlink:href="#N"/></g><path fill="#333" d="M230 0l2-204L168 0h-37L68-204 70 0H24v-248h70l56 185 57-185h69V0h-46" id="ai"/><path fill="#333" d="M140-251c80 0 125 45 125 126 0 70-33 111-92 124 6 28 34 38 68 31l-1 36C177 83 129 55 120 2 51-6 15-50 15-125c0-81 44-126 125-126zm-1 214c52 0 73-35 73-88 0-50-21-86-72-86-52 0-73 35-73 86s22 88 72 88" id="aj"/><g id="j"><use transform="matrix(0.04938271604938272,0,0,0.04938271604938272,0,0)" xlink:href="#ai"/><use transform="matrix(0.04938271604938272,0,0,0.04938271604938272,14.765432098765434,0)" xlink:href="#aj"/><use transform="matrix(0.04938271604938272,0,0,0.04938271604938272,28.592592592592595,0)" xlink:href="#U"/><use transform="matrix(0.04938271604938272,0,0,0.04938271604938272,39.40740740740741,0)" xlink:href="#U"/></g><path fill="#333" d="M186 0v-106H76V0H24v-248h52v99h110v-99h50V0h-50" id="ak"/><path fill="#333" d="M169-182c-1-43-94-46-97-3 18 66 151 10 154 114 3 95-165 93-204 36-6-8-10-19-12-30l50-8c3 46 112 56 116 5-17-69-150-10-154-114-4-87 153-88 188-35 5 8 8 18 10 28" id="al"/><g id="k"><use transform="matrix(0.04938271604938272,0,0,0.04938271604938272,0,0)" xlink:href="#ak"/><use transform="matrix(0.04938271604938272,0,0,0.04938271604938272,12.790123456790125,0)" xlink:href="#U"/><use transform="matrix(0.04938271604938272,0,0,0.04938271604938272,23.60493827160494,0)" xlink:href="#U"/><use transform="matrix(0.04938271604938272,0,0,0.04938271604938272,34.41975308641975,0)" xlink:href="#W"/><use transform="matrix(0.04938271604938272,0,0,0.04938271604938272,46.27160493827161,0)" xlink:href="#al"/></g><g id="l"><use transform="matrix(0.04938271604938272,0,0,0.04938271604938272,0,0)" xlink:href="#al"/><use transform="matrix(0.04938271604938272,0,0,0.04938271604938272,11.851851851851853,0)" xlink:href="#ai"/><use transform="matrix(0.04938271604938272,0,0,0.04938271604938272,26.617283950617285,0)" xlink:href="#U"/><use transform="matrix(0.04938271604938272,0,0,0.04938271604938272,37.4320987654321,0)" xlink:href="#W"/></g><path d="M115-194c55 1 70 41 70 98S169 2 115 4C84 4 66-9 55-30l1 105H24l-1-265h31l2 30c10-21 28-34 59-34zm-8 174c40 0 45-34 45-75s-6-73-45-74c-42 0-51 32-51 76 0 43 10 73 51 73" id="am"/><g id="m"><use transform="matrix(0.06172839506172839,0,0,0.06172839506172839,0,0)" xlink:href="#T"/><use transform="matrix(0.06172839506172839,0,0,0.06172839506172839,15.987654320987653,0)" xlink:href="#ah"/><use transform="matrix(0.06172839506172839,0,0,0.06172839506172839,20.864197530864196,0)" xlink:href="#Q"/><use transform="matrix(0.06172839506172839,0,0,0.06172839506172839,31.975308641975307,0)" xlink:href="#am"/><use transform="matrix(0.06172839506172839,0,0,0.06172839506172839,44.32098765432099,0)" xlink:href="#ae"/><use transform="matrix(0.06172839506172839,0,0,0.06172839506172839,56.666666666666664,0)" xlink:href="#Q"/><use transform="matrix(0.06172839506172839,0,0,0.06172839506172839,67.77777777777777,0)" xlink:href="#ah"/><use transform="matrix(0.06172839506172839,0,0,0.06172839506172839,72.65432098765432,0)" xlink:href="#af"/><use transform="matrix(0.06172839506172839,0,0,0.06172839506172839,78.82716049382715,0)" xlink:href="#ah"/><use transform="matrix(0.06172839506172839,0,0,0.06172839506172839,83.7037037037037,0)" xlink:href="#R"/><use transform="matrix(0.06172839506172839,0,0,0.06172839506172839,94.81481481481481,0)" xlink:href="#ae"/></g><path d="M84 4C-5 8 30-112 23-190h32v120c0 31 7 50 39 49 72-2 45-101 50-169h31l1 190h-30c-1-10 1-25-2-33-11 22-28 36-60 37" id="an"/><g id="n"><use transform="matrix(0.06172839506172839,0,0,0.06172839506172839,0,0)" xlink:href="#an"/><use transform="matrix(0.06172839506172839,0,0,0.06172839506172839,12.345679012345679,0)" xlink:href="#Q"/><use transform="matrix(0.06172839506172839,0,0,0.06172839506172839,23.45679012345679,0)" xlink:href="#an"/><use transform="matrix(0.06172839506172839,0,0,0.06172839506172839,35.80246913580247,0)" xlink:href="#L"/><use transform="matrix(0.06172839506172839,0,0,0.06172839506172839,48.148148148148145,0)" xlink:href="#N"/><use transform="matrix(0.06172839506172839,0,0,0.06172839506172839,55.49382716049382,0)" xlink:href="#ah"/><use transform="matrix(0.06172839506172839,0,0,0.06172839506172839,60.37037037037037,0)" xlink:href="#ae"/></g><path d="M190 0L58-211 59 0H30v-248h39L202-35l-2-213h31V0h-41" id="ao"/><path d="M177-190C167-65 218 103 67 71c-23-6-38-20-44-43l32-5c15 47 100 32 89-28v-30C133-14 115 1 83 1 29 1 15-40 15-95c0-56 16-97 71-98 29-1 48 16 59 35 1-10 0-23 2-32h30zM94-22c36 0 50-32 50-73 0-42-14-75-50-75-39 0-46 34-46 75s6 73 46 73" id="ap"/><g id="o"><use transform="matrix(0.06172839506172839,0,0,0.06172839506172839,0,0)" xlink:href="#ao"/><use transform="matrix(0.06172839506172839,0,0,0.06172839506172839,15.987654320987653,0)" xlink:href="#L"/><use transform="matrix(0.06172839506172839,0,0,0.06172839506172839,28.333333333333332,0)" xlink:href="#R"/><use transform="matrix(0.06172839506172839,0,0,0.06172839506172839,39.44444444444444,0)" xlink:href="#J"/><use transform="matrix(0.06172839506172839,0,0,0.06172839506172839,51.79012345679012,0)" xlink:href="#ap"/><use transform="matrix(0.06172839506172839,0,0,0.06172839506172839,64.1358024691358,0)" xlink:href="#L"/><use transform="matrix(0.06172839506172839,0,0,0.06172839506172839,76.48148148148148,0)" xlink:href="#M"/><use transform="matrix(0.06172839506172839,0,0,0.06172839506172839,88.82716049382717,0)" xlink:href="#ae"/><use transform="matrix(0.06172839506172839,0,0,0.06172839506172839,101.17283950617285,0)" xlink:href="#N"/></g><path d="M206 0h-36l-40-164L89 0H53L-1-190h32L70-26l43-164h34l41 164 42-164h31" id="aq"/><g id="p"><use transform="matrix(0.06172839506172839,0,0,0.06172839506172839,0,0)" xlink:href="#aq"/><use transform="matrix(0.06172839506172839,0,0,0.06172839506172839,15.987654320987653,0)" xlink:href="#J"/><use transform="matrix(0.06172839506172839,0,0,0.06172839506172839,28.333333333333332,0)" xlink:href="#Z"/></g><g id="q"><use transform="matrix(0.04938271604938272,0,0,0.04938271604938272,0,0)" xlink:href="#ak"/><use transform="matrix(0.04938271604938272,0,0,0.04938271604938272,12.790123456790125,0)" xlink:href="#U"/><use transform="matrix(0.04938271604938272,0,0,0.04938271604938272,23.60493827160494,0)" xlink:href="#W"/><use transform="matrix(0.04938271604938272,0,0,0.04938271604938272,35.45679012345679,0)" xlink:href="#W"/><use transform="matrix(0.04938271604938272,0,0,0.04938271604938272,47.308641975308646,0)" xlink:href="#al"/></g><g id="r"><use transform="matrix(0.06172839506172839,0,0,0.06172839506172839,0,0)" xlink:href="#S"/><use transform="matrix(0.06172839506172839,0,0,0.06172839506172839,14.814814814814813,0)" xlink:href="#N"/><use transform="matrix(0.06172839506172839,0,0,0.06172839506172839,22.160493827160494,0)" xlink:href="#ae"/><use transform="matrix(0.06172839506172839,0,0,0.06172839506172839,34.50617283950617,0)" xlink:href="#ab"/><use transform="matrix(0.06172839506172839,0,0,0.06172839506172839,45.61728395061728,0)" xlink:href="#J"/><use transform="matrix(0.06172839506172839,0,0,0.06172839506172839,57.962962962962955,0)" xlink:href="#N"/></g><path d="M210-169c-67 3-38 105-44 169h-31v-121c0-29-5-50-35-48C34-165 62-65 56 0H25l-1-190h30c1 10-1 24 2 32 10-44 99-50 107 0 11-21 27-35 58-36 85-2 47 119 55 194h-31v-121c0-29-5-49-35-48" id="ar"/><g id="s"><use transform="matrix(0.05,0,0,0.05,0,0)" xlink:href="#N"/><use transform="matrix(0.05,0,0,0.05,5.95,0)" xlink:href="#J"/><use transform="matrix(0.05,0,0,0.05,15.949999999999998,0)" xlink:href="#aa"/><use transform="matrix(0.05,0,0,0.05,24.95,0)" xlink:href="#ae"/><use transform="matrix(0.05,0,0,0.05,34.95,0)" xlink:href="#ar"/><use transform="matrix(0.05,0,0,0.05,49.900000000000006,0)" xlink:href="#J"/><use transform="matrix(0.05,0,0,0.05,59.900000000000006,0)" xlink:href="#ac"/><use transform="matrix(0.05,0,0,0.05,69.9,0)" xlink:href="#M"/><use transform="matrix(0.05,0,0,0.05,79.9,0)" xlink:href="#L"/><use transform="matrix(0.05,0,0,0.05,89.9,0)" xlink:href="#aa"/><use transform="matrix(0.05,0,0,0.05,98.9,0)" xlink:href="#ah"/><use transform="matrix(0.05,0,0,0.05,102.85000000000001,0)" xlink:href="#ae"/><use transform="matrix(0.05,0,0,0.05,112.85000000000001,0)" xlink:href="#ac"/></g><g id="t"><use transform="matrix(0.05,0,0,0.05,0,0)" xlink:href="#am"/><use transform="matrix(0.05,0,0,0.05,10,0)" xlink:href="#an"/><use transform="matrix(0.05,0,0,0.05,20,0)" xlink:href="#ac"/><use transform="matrix(0.05,0,0,0.05,30,0)" xlink:href="#af"/><use transform="matrix(0.05,0,0,0.05,35,0)" xlink:href="#ae"/><use transform="matrix(0.05,0,0,0.05,45,0)" xlink:href="#Q"/></g><g id="u"><use transform="matrix(0.05,0,0,0.05,0,0)" xlink:href="#M"/><use transform="matrix(0.05,0,0,0.05,10,0)" xlink:href="#J"/></g><g id="v"><use transform="matrix(0.05,0,0,0.05,0,0)" xlink:href="#aa"/><use transform="matrix(0.05,0,0,0.05,9,0)" xlink:href="#ae"/><use transform="matrix(0.05,0,0,0.05,19,0)" xlink:href="#K"/><use transform="matrix(0.05,0,0,0.05,22.95,0)" xlink:href="#ae"/><use transform="matrix(0.05,0,0,0.05,32.95,0)" xlink:href="#aa"/><use transform="matrix(0.05,0,0,0.05,41.95,0)" xlink:href="#L"/><use transform="matrix(0.05,0,0,0.05,51.95,0)" xlink:href="#aa"/><use transform="matrix(0.05,0,0,0.05,60.95,0)" xlink:href="#ah"/><use transform="matrix(0.05,0,0,0.05,64.9,0)" xlink:href="#ae"/><use transform="matrix(0.05,0,0,0.05,74.9,0)" xlink:href="#ac"/></g><g id="w"><use transform="matrix(0.04938271604938272,0,0,0.04938271604938272,0,0)" xlink:href="#P"/><use transform="matrix(0.04938271604938272,0,0,0.04938271604938272,12.790123456790125,0)" xlink:href="#J"/><use transform="matrix(0.04938271604938272,0,0,0.04938271604938272,22.66666666666667,0)" xlink:href="#aa"/><use transform="matrix(0.04938271604938272,0,0,0.04938271604938272,31.555555555555557,0)" xlink:href="#ae"/><use transform="matrix(0.04938271604938272,0,0,0.04938271604938272,41.4320987654321,0)" xlink:href="#ar"/><use transform="matrix(0.04938271604938272,0,0,0.04938271604938272,56.19753086419754,0)" xlink:href="#J"/><use transform="matrix(0.04938271604938272,0,0,0.04938271604938272,66.07407407407408,0)" xlink:href="#ac"/><use transform="matrix(0.04938271604938272,0,0,0.04938271604938272,75.95061728395062,0)" xlink:href="#M"/><use transform="matrix(0.04938271604938272,0,0,0.04938271604938272,85.82716049382717,0)" xlink:href="#L"/><use transform="matrix(0.04938271604938272,0,0,0.04938271604938272,95.70370370370371,0)" xlink:href="#aa"/><use transform="matrix(0.04938271604938272,0,0,0.04938271604938272,104.5925925925926,0)" xlink:href="#ah"/><use transform="matrix(0.04938271604938272,0,0,0.04938271604938272,108.49382716049384,0)" xlink:href="#ae"/><use transform="matrix(0.04938271604938272,0,0,0.04938271604938272,118.37037037037038,0)" xlink:href="#ac"/></g><g id="x"><use transform="matrix(0.04938271604938272,0,0,0.04938271604938272,0,0)" xlink:href="#am"/><use transform="matrix(0.04938271604938272,0,0,0.04938271604938272,9.876543209876544,0)" xlink:href="#an"/><use transform="matrix(0.04938271604938272,0,0,0.04938271604938272,19.75308641975309,0)" xlink:href="#ac"/><use transform="matrix(0.04938271604938272,0,0,0.04938271604938272,29.629629629629633,0)" xlink:href="#af"/><use transform="matrix(0.04938271604938272,0,0,0.04938271604938272,34.567901234567906,0)" xlink:href="#ae"/><use transform="matrix(0.04938271604938272,0,0,0.04938271604938272,44.44444444444445,0)" xlink:href="#Q"/></g><g id="y"><use transform="matrix(0.04938271604938272,0,0,0.04938271604938272,0,0)" xlink:href="#M"/><use transform="matrix(0.04938271604938272,0,0,0.04938271604938272,9.876543209876544,0)" xlink:href="#J"/></g><g id="z"><use transform="matrix(0.04938271604938272,0,0,0.04938271604938272,0,0)" xlink:href="#aa"/><use transform="matrix(0.04938271604938272,0,0,0.04938271604938272,8.88888888888889,0)" xlink:href="#ae"/><use transform="matrix(0.04938271604938272,0,0,0.04938271604938272,18.765432098765434,0)" xlink:href="#K"/><use transform="matrix(0.04938271604938272,0,0,0.04938271604938272,22.666666666666668,0)" xlink:href="#ae"/><use transform="matrix(0.04938271604938272,0,0,0.04938271604938272,32.543209876543216,0)" xlink:href="#aa"/><use transform="matrix(0.04938271604938272,0,0,0.04938271604938272,41.4320987654321,0)" xlink:href="#L"/><use transform="matrix(0.04938271604938272,0,0,0.04938271604938272,51.308641975308646,0)" xlink:href="#aa"/><use transform="matrix(0.04938271604938272,0,0,0.04938271604938272,60.19753086419754,0)" xlink:href="#ah"/><use transform="matrix(0.04938271604938272,0,0,0.04938271604938272,64.09876543209877,0)" xlink:href="#ae"/><use transform="matrix(0.04938271604938272,0,0,0.04938271604938272,73.97530864197532,0)" xlink:href="#ac"/></g><path d="M106-169C34-169 62-67 57 0H25v-261h32l-1 103c12-21 28-36 61-36 89 0 53 116 60 194h-32v-121c2-32-8-49-39-48" id="as"/><g id="A"><use transform="matrix(0.05,0,0,0.05,0,0)" xlink:href="#L"/><use transform="matrix(0.05,0,0,0.05,10,0)" xlink:href="#am"/><use transform="matrix(0.05,0,0,0.05,20,0)" xlink:href="#L"/><use transform="matrix(0.05,0,0,0.05,30,0)" xlink:href="#aa"/><use transform="matrix(0.05,0,0,0.05,39,0)" xlink:href="#as"/><use transform="matrix(0.05,0,0,0.05,49,0)" xlink:href="#J"/></g><g id="B"><use transform="matrix(0.05,0,0,0.05,0,0)" xlink:href="#J"/><use transform="matrix(0.05,0,0,0.05,10,0)" xlink:href="#ar"/><use transform="matrix(0.05,0,0,0.05,24.950000000000003,0)" xlink:href="#L"/><use transform="matrix(0.05,0,0,0.05,34.95,0)" xlink:href="#ah"/><use transform="matrix(0.05,0,0,0.05,38.900000000000006,0)" xlink:href="#K"/></g><g id="C"><use transform="matrix(0.06172839506172839,0,0,0.06172839506172839,0,0)" xlink:href="#O"/><use transform="matrix(0.06172839506172839,0,0,0.06172839506172839,14.814814814814813,0)" xlink:href="#am"/><use transform="matrix(0.06172839506172839,0,0,0.06172839506172839,27.160493827160494,0)" xlink:href="#L"/><use transform="matrix(0.06172839506172839,0,0,0.06172839506172839,39.50617283950617,0)" xlink:href="#aa"/><use transform="matrix(0.06172839506172839,0,0,0.06172839506172839,50.61728395061728,0)" xlink:href="#as"/><use transform="matrix(0.06172839506172839,0,0,0.06172839506172839,62.962962962962955,0)" xlink:href="#J"/></g><path d="M30 0v-248h187v28H63v79h144v27H63v87h162V0H30" id="at"/><g id="D"><use transform="matrix(0.06172839506172839,0,0,0.06172839506172839,0,0)" xlink:href="#at"/><use transform="matrix(0.06172839506172839,0,0,0.06172839506172839,14.814814814814813,0)" xlink:href="#ar"/><use transform="matrix(0.06172839506172839,0,0,0.06172839506172839,33.2716049382716,0)" xlink:href="#L"/><use transform="matrix(0.06172839506172839,0,0,0.06172839506172839,45.61728395061728,0)" xlink:href="#ah"/><use transform="matrix(0.06172839506172839,0,0,0.06172839506172839,50.49382716049382,0)" xlink:href="#K"/></g><g id="E"><use transform="matrix(0.05,0,0,0.05,0,0)" xlink:href="#af"/><use transform="matrix(0.05,0,0,0.05,5,0)" xlink:href="#aq"/><use transform="matrix(0.05,0,0,0.05,17.950000000000003,0)" xlink:href="#ah"/><use transform="matrix(0.05,0,0,0.05,21.900000000000002,0)" xlink:href="#K"/><use transform="matrix(0.05,0,0,0.05,25.85,0)" xlink:href="#ah"/><use transform="matrix(0.05,0,0,0.05,29.8,0)" xlink:href="#ae"/></g><path d="M127-220V0H93v-220H8v-28h204v28h-85" id="au"/><g id="F"><use transform="matrix(0.06172839506172839,0,0,0.06172839506172839,0,0)" xlink:href="#au"/><use transform="matrix(0.06172839506172839,0,0,0.06172839506172839,12.28395061728395,0)" xlink:href="#aq"/><use transform="matrix(0.06172839506172839,0,0,0.06172839506172839,28.2716049382716,0)" xlink:href="#ah"/><use transform="matrix(0.06172839506172839,0,0,0.06172839506172839,33.148148148148145,0)" xlink:href="#K"/><use transform="matrix(0.06172839506172839,0,0,0.06172839506172839,38.02469135802469,0)" xlink:href="#ah"/><use transform="matrix(0.06172839506172839,0,0,0.06172839506172839,42.901234567901234,0)" xlink:href="#ae"/></g><path d="M30-248c87 1 191-15 191 75 0 78-77 80-158 76V0H30v-248zm33 125c57 0 124 11 124-50 0-59-68-47-124-48v98" id="av"/><path d="M30 0v-248h33v221h125V0H30" id="aw"/><path d="M33 0v-248h34V0H33" id="ax"/><path d="M143 4C61 4 22-44 18-125c-5-107 100-154 193-111 17 8 29 25 37 43l-32 9c-13-25-37-40-76-40-61 0-88 39-88 99 0 61 29 100 91 101 35 0 62-11 79-27v-45h-74v-28h105v86C228-13 192 4 143 4" id="ay"/><path d="M232-93c-1 65-40 97-104 97C67 4 28-28 28-90v-158h33c8 89-33 224 67 224 102 0 64-133 71-224h33v155" id="az"/><g id="G"><use transform="matrix(0.08641975308641976,0,0,0.08641975308641976,0,0)" xlink:href="#T"/><use transform="matrix(0.08641975308641976,0,0,0.08641975308641976,22.38271604938272,0)" xlink:href="#at"/><use transform="matrix(0.08641975308641976,0,0,0.08641975308641976,43.12345679012346,0)" xlink:href="#ag"/><use transform="matrix(0.08641975308641976,0,0,0.08641975308641976,63.8641975308642,0)" xlink:href="#av"/><use transform="matrix(0.08641975308641976,0,0,0.08641975308641976,84.60493827160495,0)" xlink:href="#aw"/><use transform="matrix(0.08641975308641976,0,0,0.08641975308641976,101.8888888888889,0)" xlink:href="#ax"/><use transform="matrix(0.08641975308641976,0,0,0.08641975308641976,110.53086419753087,0)" xlink:href="#at"/><use transform="matrix(0.08641975308641976,0,0,0.08641975308641976,131.27160493827162,0)" xlink:href="#ay"/><use transform="matrix(0.08641975308641976,0,0,0.08641975308641976,155.46913580246917,0)" xlink:href="#az"/><use transform="matrix(0.08641975308641976,0,0,0.08641975308641976,177.85185185185188,0)" xlink:href="#at"/></g><path d="M212-179c-10-28-35-45-73-45-59 0-87 40-87 99 0 60 29 101 89 101 43 0 62-24 78-52l27 14C228-24 195 4 139 4 59 4 22-46 18-125c-6-104 99-153 187-111 19 9 31 26 39 46" id="aA"/><g id="H"><use transform="matrix(0.08641975308641976,0,0,0.08641975308641976,0,0)" xlink:href="#O"/><use transform="matrix(0.08641975308641976,0,0,0.08641975308641976,20.740740740740744,0)" xlink:href="#aA"/><use transform="matrix(0.08641975308641976,0,0,0.08641975308641976,43.12345679012346,0)" xlink:href="#au"/><use transform="matrix(0.08641975308641976,0,0,0.08641975308641976,62.04938271604939,0)" xlink:href="#az"/><use transform="matrix(0.08641975308641976,0,0,0.08641975308641976,84.43209876543212,0)" xlink:href="#O"/><use transform="matrix(0.08641975308641976,0,0,0.08641975308641976,105.17283950617286,0)" xlink:href="#aw"/></g></defs></g></svg>