<svg xmlns="http://www.w3.org/2000/svg" xmlns:xlink="http://www.w3.org/1999/xlink" contentStyleType="text/css" height="1484px" preserveAspectRatio="none" style="width:949px;height:1484px;background:#FFFFFF;" version="1.1" viewBox="0 0 949 1484" width="949px" zoomAndPan="magnify"><defs/><g><!--cluster Sistema_para_la_Mejora_del_Acceso_Alimentario_en_Contextos_de_Vulnerabilidad_Socioecon?mica--><g id="cluster_Sistema_para_la_Mejora_del_Acceso_Alimentario_en_Contextos_de_Vulnerabilidad_Socioecon&#243;mica"><rect fill="none" height="1471" rx="2.5" ry="2.5" style="stroke:#181818;stroke-width:1.0;" width="787.56" x="156" y="7"/><text fill="#000000" font-family="sans-serif" font-size="14" font-weight="bold" lengthAdjust="spacing" textLength="772" x="163.78" y="21.9951">Sistema_para_la_Mejora_del_Acceso_Alimentario_en_Contextos_de_Vulnerabilidad_Socioecon&#243;mica</text></g><g id="elem_Registrar persona fisica"><ellipse cx="549.2847" cy="448.0029" fill="#F1F1F1" rx="98.6147" ry="22.1229" style="stroke:#181818;stroke-width:0.5;"/><text fill="#000000" font-family="sans-serif" font-size="14" lengthAdjust="spacing" textLength="161" x="468.7847" y="450.8496">Registrar persona fisica</text></g><g id="elem_Registrar persona vulnerable"><ellipse cx="549.2774" cy="364.9955" fill="#F1F1F1" rx="115.6274" ry="25.5255" style="stroke:#181818;stroke-width:0.5;"/><text fill="#000000" font-family="sans-serif" font-size="14" lengthAdjust="spacing" textLength="198" x="450.2774" y="367.8422">Registrar persona vulnerable</text></g><g id="elem_Registrar persona jur&#237;dica"><ellipse cx="549.2811" cy="781.9982" fill="#F1F1F1" rx="104.9911" ry="23.3982" style="stroke:#181818;stroke-width:0.5;"/><text fill="#000000" font-family="sans-serif" font-size="14" lengthAdjust="spacing" textLength="175" x="461.7811" y="784.8449">Registrar persona jur&#237;dica</text></g><g id="elem_Modificar informaci&#243;n personal"><ellipse cx="549.2817" cy="278.0043" fill="#F1F1F1" rx="120.7717" ry="26.5543" style="stroke:#181818;stroke-width:0.5;"/><text fill="#000000" font-family="sans-serif" font-size="14" lengthAdjust="spacing" textLength="209" x="444.7817" y="280.851">Modificar informaci&#243;n personal</text></g><g id="elem_Modificar informaci&#243;n jur&#237;dica"><ellipse cx="549.2814" cy="1128.0023" fill="#F1F1F1" rx="115.1614" ry="25.4323" style="stroke:#181818;stroke-width:0.5;"/><text fill="#000000" font-family="sans-serif" font-size="14" lengthAdjust="spacing" textLength="197" x="450.7814" y="1130.849">Modificar informaci&#243;n jur&#237;dica</text></g><g id="elem_Modificar formas de colaboraci&#243;n"><ellipse cx="549.2813" cy="694.9963" fill="#F1F1F1" rx="128.7813" ry="28.1563" style="stroke:#181818;stroke-width:0.5;"/><text fill="#000000" font-family="sans-serif" font-size="14" lengthAdjust="spacing" textLength="226" x="436.2813" y="697.8429">Modificar formas de colaboraci&#243;n</text></g><g id="elem_Donar Dinero"><ellipse cx="549.2752" cy="615.999" fill="#F1F1F1" rx="69.6952" ry="16.339" style="stroke:#181818;stroke-width:0.5;"/><text fill="#000000" font-family="sans-serif" font-size="14" lengthAdjust="spacing" textLength="92" x="500.2752" y="619.7466">Donar Dinero</text></g><g id="elem_Donar Vianda"><ellipse cx="549.2752" cy="199.999" fill="#F1F1F1" rx="69.6952" ry="16.339" style="stroke:#181818;stroke-width:0.5;"/><text fill="#000000" font-family="sans-serif" font-size="14" lengthAdjust="spacing" textLength="92" x="500.2752" y="203.7466">Donar Vianda</text></g><g id="elem_Distribuir Vianda"><ellipse cx="549.2763" cy="131.0013" fill="#F1F1F1" rx="76.9563" ry="17.7913" style="stroke:#181818;stroke-width:0.5;"/><text fill="#000000" font-family="sans-serif" font-size="14" lengthAdjust="spacing" textLength="111" x="490.8875" y="134.7201">Distribuir Vianda</text></g><g id="elem_Distribuir Tarjeta"><ellipse cx="549.2836" cy="60.0007" fill="#F1F1F1" rx="77.3536" ry="17.8707" style="stroke:#181818;stroke-width:0.5;"/><text fill="#000000" font-family="sans-serif" font-size="14" lengthAdjust="spacing" textLength="112" x="490.5633" y="63.6754">Distribuir Tarjeta</text></g><g id="elem_Configurar temperatura de heladera"><ellipse cx="549.2809" cy="534.9962" fill="#F1F1F1" rx="138.2809" ry="30.0562" style="stroke:#181818;stroke-width:0.5;"/><text fill="#000000" font-family="sans-serif" font-size="14" lengthAdjust="spacing" textLength="246" x="426.2809" y="537.8429">Configurar temperatura de heladera</text></g><g id="elem_Asumir cargo de una heladera"><ellipse cx="549.2755" cy="1041.0031" fill="#F1F1F1" rx="119.3655" ry="26.2731" style="stroke:#181818;stroke-width:0.5;"/><text fill="#000000" font-family="sans-serif" font-size="14" lengthAdjust="spacing" textLength="206" x="446.2755" y="1043.8498">Asumir cargo de una heladera</text></g><g id="elem_Solicitar puntos de colocaci&#243;n"><ellipse cx="549.2755" cy="953.0031" fill="#F1F1F1" rx="119.3655" ry="26.2731" style="stroke:#181818;stroke-width:0.5;"/><text fill="#000000" font-family="sans-serif" font-size="14" lengthAdjust="spacing" textLength="206" x="446.2755" y="955.8498">Solicitar puntos de colocaci&#243;n</text></g><g id="elem_Ofrecer productos y servicios"><ellipse cx="549.2771" cy="865.9954" fill="#F1F1F1" rx="117.0271" ry="25.8054" style="stroke:#181818;stroke-width:0.5;"/><text fill="#000000" font-family="sans-serif" font-size="14" lengthAdjust="spacing" textLength="201" x="448.7771" y="868.8421">Ofrecer productos y servicios</text></g><g id="elem_Registrar t&#233;cnico"><ellipse cx="549.2835" cy="1444.0047" fill="#F1F1F1" rx="79.3735" ry="18.2747" style="stroke:#181818;stroke-width:0.5;"/><text fill="#000000" font-family="sans-serif" font-size="14" lengthAdjust="spacing" textLength="117" x="488.8776" y="1447.4548">Registrar t&#233;cnico</text></g><g id="elem_Registrar heladera"><ellipse cx="549.2779" cy="1371.9976" fill="#F1F1F1" rx="83.1379" ry="19.0276" style="stroke:#181818;stroke-width:0.5;"/><text fill="#000000" font-family="sans-serif" font-size="14" lengthAdjust="spacing" textLength="126" x="485.7314" y="1375.0294">Registrar heladera</text></g><g id="elem_Modificar informaci&#243;n heladera"><ellipse cx="549.2817" cy="1291.0043" fill="#F1F1F1" rx="120.7717" ry="26.5543" style="stroke:#181818;stroke-width:0.5;"/><text fill="#000000" font-family="sans-serif" font-size="14" lengthAdjust="spacing" textLength="209" x="444.7817" y="1293.851">Modificar informaci&#243;n heladera</text></g><g id="elem_Dar de baja heladera"><ellipse cx="549.2844" cy="1209.0029" fill="#F1F1F1" rx="90.1144" ry="20.4229" style="stroke:#181818;stroke-width:0.5;"/><text fill="#000000" font-family="sans-serif" font-size="14" lengthAdjust="spacing" textLength="142" x="478.2844" y="1211.8496">Dar de baja heladera</text></g><!--entity PersonaF?sica--><g id="elem_PersonaF&#237;sica"><ellipse cx="59" cy="335.35" fill="#F1F1F1" rx="8" ry="8" style="stroke:#181818;stroke-width:0.5;"/><path d="M59,343.35 L59,370.35 M46,351.35 L72,351.35 M59,370.35 L46,385.35 M59,370.35 L72,385.35 " fill="none" style="stroke:#181818;stroke-width:0.5;"/><text fill="#000000" font-family="sans-serif" font-size="14" lengthAdjust="spacing" textLength="95" x="11.5" y="399.8451">PersonaF&#237;sica</text></g><!--entity PersonaJur?dica--><g id="elem_PersonaJur&#237;dica"><ellipse cx="59" cy="836.35" fill="#F1F1F1" rx="8" ry="8" style="stroke:#181818;stroke-width:0.5;"/><path d="M59,844.35 L59,871.35 M46,852.35 L72,852.35 M59,871.35 L46,886.35 M59,871.35 L72,886.35 " fill="none" style="stroke:#181818;stroke-width:0.5;"/><text fill="#000000" font-family="sans-serif" font-size="14" lengthAdjust="spacing" textLength="105" x="6.5" y="900.8451">PersonaJur&#237;dica</text></g><!--entity EncargadoONG--><g id="elem_EncargadoONG"><ellipse cx="59" cy="1301.35" fill="#F1F1F1" rx="8" ry="8" style="stroke:#181818;stroke-width:0.5;"/><path d="M59,1309.35 L59,1336.35 M46,1317.35 L72,1317.35 M59,1336.35 L46,1351.35 M59,1336.35 L72,1351.35 " fill="none" style="stroke:#181818;stroke-width:0.5;"/><text fill="#000000" font-family="sans-serif" font-size="14" lengthAdjust="spacing" textLength="106" x="6" y="1365.8451">EncargadoONG</text></g><!--link PersonaF?sica to Registrar persona fisica--><g id="link_PersonaF&#237;sica_Registrar persona fisica"><path d="M106.73,391.63 C119.73,397.98 134.1,404.05 148,408 C248.43,436.56 368.07,445.4 450.24,447.82 " fill="none" id="PersonaF&#237;sica-Registrar persona fisica" style="stroke:#181818;stroke-width:1.0;"/></g><!--link PersonaF?sica to Registrar persona vulnerable--><g id="link_PersonaF&#237;sica_Registrar persona vulnerable"><path d="M106.82,365 C181.41,365 329.41,365 433.41,365 " fill="none" id="PersonaF&#237;sica-Registrar persona vulnerable" style="stroke:#181818;stroke-width:1.0;"/></g><!--link PersonaJur?dica to Registrar persona jur?dica--><g id="link_PersonaJur&#237;dica_Registrar persona jur&#237;dica"><path d="M111.85,836.94 C123.44,831.51 135.9,826.46 148,823 C245.9,795.03 362.07,785.62 443.98,782.7 " fill="none" id="PersonaJur&#237;dica-Registrar persona jur&#237;dica" style="stroke:#181818;stroke-width:1.0;"/></g><!--link PersonaF?sica to Modificar informaci?n personal--><g id="link_PersonaF&#237;sica_Modificar informaci&#243;n personal"><path d="M106.76,338.46 C119.75,332.11 134.12,326.02 148,322 C240,295.35 348.16,284.62 428.85,280.41 " fill="none" id="PersonaF&#237;sica-Modificar informaci&#243;n personal" style="stroke:#181818;stroke-width:1.0;"/></g><!--link PersonaJur?dica to Modificar informaci?n jur?dica--><g id="link_PersonaJur&#237;dica_Modificar informaci&#243;n jur&#237;dica"><path d="M63.62,904.47 C70.58,954.78 90.66,1041.6 148,1085 C236.05,1151.64 367.89,1152.4 455.93,1143.22 " fill="none" id="PersonaJur&#237;dica-Modificar informaci&#243;n jur&#237;dica" style="stroke:#181818;stroke-width:1.0;"/></g><!--link PersonaF?sica to Modificar formas de colaboraci?n--><g id="link_PersonaF&#237;sica_Modificar formas de colaboraci&#243;n"><path d="M59.5,403.49 C60.98,465.96 73.81,588.57 148,650 C230.41,718.24 357.29,720.99 446.05,712.15 " fill="none" id="PersonaF&#237;sica-Modificar formas de colaboraci&#243;n" style="stroke:#181818;stroke-width:1.0;"/></g><!--link Modificar formas de colaboraci?n to PersonaJur?dica--><g id="link_Modificar formas de colaboraci&#243;n_PersonaJur&#237;dica"><path d="M430.31,684.03 C346.02,681.77 232.95,690.55 148,741 C114.68,760.79 90.75,798.66 76.33,827.56 " fill="none" id="Modificar formas de colaboraci&#243;n-PersonaJur&#237;dica" style="stroke:#181818;stroke-width:1.0;"/></g><!--link PersonaF?sica to Donar Dinero--><g id="link_PersonaF&#237;sica_Donar Dinero"><path d="M63.52,403.51 C70.37,453.84 90.32,540.53 148,583 C252.16,659.69 415.54,642.57 497.63,627.32 " fill="none" id="PersonaF&#237;sica-Donar Dinero" style="stroke:#181818;stroke-width:1.0;"/></g><!--link PersonaF?sica to Donar Vianda--><g id="link_PersonaF&#237;sica_Donar Vianda"><path d="M74.69,326.64 C88.62,295.96 112.7,254.78 148,234 C256.19,170.32 410.13,179.38 492,190.37 " fill="none" id="PersonaF&#237;sica-Donar Vianda" style="stroke:#181818;stroke-width:1.0;"/></g><!--link PersonaF?sica to Distribuir Vianda--><g id="link_PersonaF&#237;sica_Distribuir Vianda"><path d="M65.21,326.59 C73.72,280.19 95.3,203.69 148,166 C250.28,92.86 406.97,105.36 490.75,119.17 " fill="none" id="PersonaF&#237;sica-Distribuir Vianda" style="stroke:#181818;stroke-width:1.0;"/></g><!--link PersonaF?sica to Distribuir Tarjeta--><g id="link_PersonaF&#237;sica_Distribuir Tarjeta"><path d="M60.18,326.49 C62.74,266.63 77.25,152.3 148,96 C247.5,16.82 408.2,32.13 492.53,47.53 " fill="none" id="PersonaF&#237;sica-Distribuir Tarjeta" style="stroke:#181818;stroke-width:1.0;"/></g><!--link PersonaF?sica to Configurar temperatura de heladera--><g id="link_PersonaF&#237;sica_Configurar temperatura de heladera"><path d="M76.8,403.4 C91.34,431.75 115.22,468.64 148,488 C229.49,536.11 336.6,546.51 419.52,545.61 " fill="none" id="PersonaF&#237;sica-Configurar temperatura de heladera" style="stroke:#181818;stroke-width:1.0;"/></g><!--link Donar Dinero to PersonaJur?dica--><g id="link_Donar Dinero_PersonaJur&#237;dica"><path d="M497.64,604.7 C415.57,589.48 252.22,572.39 148,649 C90.51,691.26 70.49,777.56 63.58,827.66 " fill="none" id="Donar Dinero-PersonaJur&#237;dica" style="stroke:#181818;stroke-width:1.0;"/></g><!--link PersonaJur?dica to Asumir cargo de una heladera--><g id="link_PersonaJur&#237;dica_Asumir cargo de una heladera"><path d="M74.97,904.45 C89,934.95 113.08,975.86 148,997 C236.51,1050.59 356.47,1056.92 441.93,1052.73 " fill="none" id="PersonaJur&#237;dica-Asumir cargo de una heladera" style="stroke:#181818;stroke-width:1.0;"/></g><!--link PersonaJur?dica to Solicitar puntos de colocaci?n--><g id="link_PersonaJur&#237;dica_Solicitar puntos de colocaci&#243;n"><path d="M111.87,894.99 C123.46,900.43 135.91,905.5 148,909 C240.5,935.8 349.35,946.5 430.17,950.66 " fill="none" id="PersonaJur&#237;dica-Solicitar puntos de colocaci&#243;n" style="stroke:#181818;stroke-width:1.0;"/></g><!--link PersonaJur?dica to Ofrecer productos y servicios--><g id="link_PersonaJur&#237;dica_Ofrecer productos y servicios"><path d="M111.79,866 C187.51,866 330.45,866 432.12,866 " fill="none" id="PersonaJur&#237;dica-Ofrecer productos y servicios" style="stroke:#181818;stroke-width:1.0;"/></g><!--link EncargadoONG to Registrar t?cnico--><g id="link_EncargadoONG_Registrar t&#233;cnico"><path d="M93.09,1369.51 C108.22,1384.48 127.37,1400.13 148,1409 C254.86,1454.96 392.34,1455.9 475.21,1450.96 " fill="none" id="EncargadoONG-Registrar t&#233;cnico" style="stroke:#181818;stroke-width:1.0;"/></g><!--link EncargadoONG to Registrar heladera--><g id="link_EncargadoONG_Registrar heladera"><path d="M112.25,1335.39 C198.36,1342.62 370.5,1357.07 470.81,1365.49 " fill="none" id="EncargadoONG-Registrar heladera" style="stroke:#181818;stroke-width:1.0;"/></g><!--link EncargadoONG to Modificar informaci?n heladera--><g id="link_EncargadoONG_Modificar informaci&#243;n heladera"><path d="M112.25,1326.72 C189.01,1320.43 334.14,1308.54 435.8,1300.21 " fill="none" id="EncargadoONG-Modificar informaci&#243;n heladera" style="stroke:#181818;stroke-width:1.0;"/></g><!--link EncargadoONG to Dar de baja heladera--><g id="link_EncargadoONG_Dar de baja heladera"><path d="M89.78,1292.68 C105.21,1275.69 125.52,1257.27 148,1247 C249.75,1200.53 380.97,1197.35 464.88,1201.47 " fill="none" id="EncargadoONG-Dar de baja heladera" style="stroke:#181818;stroke-width:1.0;"/></g><!--SRC=[ZLFBJiCm4BpdAto40nzHKK12uY6Ak5fRUnEsEDvgxI0GueCuSE8JycEi2xGKaggts9xPsPsT1AopoMo4cljiF0cwJ1ohz41n2GAjMO9xW0Pd-JcWASyGcu1L1Iwpc6kKn15E-_T43hOlpplft_tc-YGwa0OyNrsULTMwb9bHojY2BNesWBt01UkNns0dpc5YEmdKOimWn1QZFUQOyIbpKeozwq94WJa5yk3jZ1qnEexzHwlIBrMrtQ8vEZ87DzYefe2OvTUZgQay7ku7VloM3BWch6STeIn-tWy76xfWJxKUn52iMLfmr7_47tOOaHbXxT9QxNcBkY8cuz4u3Z1NvrTLXYI3XcK_xgZkL2_5J4dzuq6tlm1t1D4FhsDQdALvH_kYRa4Mc8TXcgIQcgviIYEeTaFMGnde7WDuFMzc-M_4u33RAvgahjKUIl2vbEqq2vlIWvGP1tAKItYwg27_jfVT-6AKTLNh3uNA4VQTAxHdar0UjHGd7UBtp_Sdexb_Sv6SZh03j6dw7sWaXZiOKyNgL7DO_7QZUlq4]--></g></svg>